<mxfile host="65bd71144e">
    <diagram id="3GV1O54AFnzQmnB-ay8X" name="Pagina-1">
        <mxGraphModel dx="581" dy="164" grid="1" gridSize="10" guides="1" tooltips="1" connect="1" arrows="1" fold="1" page="1" pageScale="1" pageWidth="827" pageHeight="1169" math="0" shadow="0">
            <root>
                <mxCell id="0"/>
                <mxCell id="1" parent="0"/>
                <mxCell id="4" value="ID, ricetta" style="edgeStyle=none;html=1;fontStyle=1" parent="1" source="2" target="3" edge="1">
                    <mxGeometry x="0.0079" relative="1" as="geometry">
                        <Array as="points">
                            <mxPoint x="530" y="210"/>
                            <mxPoint x="380" y="210"/>
                        </Array>
                        <mxPoint as="offset"/>
                    </mxGeometry>
                </mxCell>
                <mxCell id="2" value="&lt;b&gt;PLC&lt;/b&gt;" style="rounded=1;whiteSpace=wrap;html=1;fillColor=#f8cecc;strokeColor=#b85450;" parent="1" vertex="1">
                    <mxGeometry x="590" y="220" width="100" height="50" as="geometry"/>
                </mxCell>
                <mxCell id="13" value="&lt;b&gt;ID, status&lt;/b&gt;" style="edgeStyle=none;html=1;exitX=0.75;exitY=1;exitDx=0;exitDy=0;entryX=0.382;entryY=1.014;entryDx=0;entryDy=0;entryPerimeter=0;" parent="1" source="3" target="2" edge="1">
                    <mxGeometry relative="1" as="geometry">
                        <Array as="points">
                            <mxPoint x="350" y="290"/>
                            <mxPoint x="580" y="290"/>
                        </Array>
                    </mxGeometry>
                </mxCell>
                <mxCell id="3" value="computer vision" style="rounded=0;whiteSpace=wrap;html=1;fillColor=#1ba1e2;strokeColor=#006EAF;fontColor=#ffffff;fontStyle=1" parent="1" vertex="1">
                    <mxGeometry x="240" y="200" width="110" height="65" as="geometry"/>
                </mxCell>
                <mxCell id="5" value="fotocamera" style="rounded=0;whiteSpace=wrap;html=1;fillColor=#b0e3e6;strokeColor=#0e8088;fontStyle=1" parent="1" vertex="1">
                    <mxGeometry x="70" y="217.5" width="90" height="30" as="geometry"/>
                </mxCell>
                <mxCell id="8" value="&lt;b&gt;USB&lt;/b&gt;" style="endArrow=classic;startArrow=classic;html=1;exitX=1;exitY=0.5;exitDx=0;exitDy=0;entryX=0;entryY=0.5;entryDx=0;entryDy=0;" parent="1" source="5" target="3" edge="1">
                    <mxGeometry width="50" height="50" relative="1" as="geometry">
                        <mxPoint x="380" y="260" as="sourcePoint"/>
                        <mxPoint x="430" y="210" as="targetPoint"/>
                    </mxGeometry>
                </mxCell>
            </root>
        </mxGraphModel>
    </diagram>
</mxfile>